<?xml version="1.0" encoding="utf-8"?>
<!-- Generator: Adobe Illustrator 24.0.2, SVG Export Plug-In . SVG Version: 6.00 Build 0)  -->
<svg version="1.1" id="Capa_1" xmlns="http://www.w3.org/2000/svg" xmlns:xlink="http://www.w3.org/1999/xlink" x="0px" y="0px"
	 viewBox="0 0 848.2 270.6" style="enable-background:new 0 0 848.2 270.6;" xml:space="preserve">
<style type="text/css">
	.st0{fill:none;stroke:#1D1D1B;stroke-width:4;}
</style>
<g>
	<path class="st0" d="M114.9,73.3H65.4c-0.8,0-1.2-0.7-0.8-1.5l5.9-12.7c0.4-0.8,1.4-1.5,2.2-1.5h15c0.8,0,1.2,0.7,0.8,1.5l-2.1,4.5
		c-0.8,1.7-0.1,3,1.6,3h30c1.7,0,3.6-1.4,4.4-3l7.7-16.5c0.8-1.7,0.1-3-1.6-3H44.6c-1.7,0-3.6,1.3-4.4,3L23,83.8
		c-0.8,1.7-0.1,3,1.6,3h49.5c0.8,0,1.2,0.7,0.8,1.5L69,101.1c-0.4,0.8-1.4,1.5-2.2,1.5h-15c-0.8,0-1.2-0.7-0.8-1.5l2.1-4.5
		c0.8-1.7,0.1-3-1.6-3h-30c-1.7,0-3.6,1.4-4.4,3l-7.7,16.5c-0.8,1.7-0.1,3,1.6,3h83.9c1.7,0,3.6-1.3,4.4-3l17.1-36.7
		C117.2,74.7,116.5,73.3,114.9,73.3z"/>
	<path class="st0" d="M203.1,93.6h-31.5c-0.8,0-1.8,0.7-2.2,1.5l-2.8,6c-0.4,0.8-1.4,1.5-2.2,1.5h-15c-0.8,0-1.2-0.7-0.8-1.5l7-15
		c0.4-0.8,1.4-1.5,2.2-1.5h49.5c1.7,0,3.6-1.3,4.4-3l16.1-34.5c0.8-1.7,0.1-3-1.6-3h-83.9c-1.7,0-3.6,1.3-4.4,3l-30.8,65.9
		c-0.8,1.7-0.1,3,1.6,3h83.9c1.7,0,3.6-1.3,4.4-3l7.7-16.5C205.5,94.9,204.8,93.6,203.1,93.6z M163.3,69.6l4.9-10.5
		c0.4-0.8,1.4-1.5,2.2-1.5h15c0.8,0,1.2,0.7,0.8,1.5l-4.9,10.5c-0.4,0.8-1.4,1.5-2.2,1.5h-15C163.3,71.1,163,70.4,163.3,69.6z"/>
	<path class="st0" d="M317.8,63.6l7.7-16.5c0.8-1.7,0.1-3-1.6-3h-83.9c-1.7,0-3.6,1.3-4.4,3l-30.8,65.9c-0.8,1.7-0.1,3,1.6,3h30
		c1.7,0,3.6-1.3,4.4-3l25.2-54c0.4-0.8,1.4-1.5,2.2-1.5h15c0.8,0,1.2,0.7,0.8,1.5l-2.1,4.5c-0.8,1.7-0.1,3,1.6,3h30
		C315,66.6,317,65.3,317.8,63.6z"/>
	<path class="st0" d="M370.9,159.2l37.6-80.6c0.8-1.7,0.1-3-1.6-3h-30c-1.7,0-3.6,1.3-4.4,3L362,101.1c-0.4,0.8-1.4,1.5-2.2,1.5h-15
		c-0.8,0-1.2-0.7-0.8-1.5l19.6-42c0.4-0.8,1.4-1.5,2.2-1.5h15c0.8,0,1.2,0.7,0.8,1.5l-2.1,4.5c-0.8,1.7-0.1,3,1.6,3h30
		c1.7,0,3.6-1.4,4.4-3l7.7-16.5c0.8-1.7,0.1-3-1.6-3h-83.9c-1.7,0-3.6,1.3-4.4,3l-30.8,65.9c-0.8,1.7-0.1,3,1.6,3h49.4
		c0.8,0,1.2,0.7,0.8,1.5l-26.4,56.6c-1,2.2,0.6,3.7,3.1,2.7l37-15C369.2,161.3,370.4,160.3,370.9,159.2z"/>
	<path class="st0" d="M401.7,116.1h30c1.7,0,3.6-1.4,4.4-3l30.8-66c0.8-1.7,0.1-3-1.6-3h-30c-1.7,0-3.6,1.3-4.4,3l-30.8,66
		C399.4,114.7,400.1,116.1,401.7,116.1z"/>
	<path class="st0" d="M443.7,26.1h30c1.7,0,3.6-1.3,4.4-3l5.6-12c0.8-1.6,0.1-3-1.6-3h-30c-1.7,0-3.6,1.4-4.4,3l-5.6,12
		C441.3,24.8,442,26.1,443.7,26.1z"/>
	<path class="st0" d="M477.6,47.1l-30.8,66c-0.8,1.7-0.1,3,1.6,3h83.9c1.7,0,3.6-1.4,4.4-3l30.8-66c0.8-1.7,0.1-3-1.6-3H482
		C480.4,44.1,478.4,45.5,477.6,47.1z M488.4,101.1l19.6-42c0.4-0.8,1.4-1.5,2.2-1.5h15c0.8,0,1.2,0.7,0.8,1.5l-19.6,42
		c-0.4,0.8-1.4,1.5-2.2,1.5h-15C488.4,102.6,488,101.9,488.4,101.1z"/>
	<path class="st0" d="M406.3,182.2h13.3c1.6,0,3.6-1.3,4.3-3l3.4-7.4c0.8-1.6,0.1-3-1.6-2.9h-13.3c-0.8,0-1.2-0.7-0.8-1.5l15.7-33.6
		c1-2.2-0.6-3.6-3-2.6l-36.4,14.7c-1.2,0.5-2.3,1.5-2.9,2.6l-8.8,18.8c-0.4,0.8-1.3,1.5-2.2,1.5h-4.4c-1.6,0-3.6,1.3-4.3,3l-3.4,7.4
		c-0.8,1.6-0.1,3,1.6,3h4.4c0.8,0,1.2,0.6,0.8,1.5l-30.9,66.3c-0.8,1.6-0.1,3,1.6,3h29.5c1.6,0,3.6-1.3,4.3-3l30.9-66.3
		C404.5,182.9,405.5,182.2,406.3,182.2z"/>
	<path class="st0" d="M450.7,182.2h-29.5c-1.6,0-3.6,1.3-4.3,3L386.7,250c-0.8,1.6-0.1,3,1.6,3h29.5c1.6,0,3.6-1.3,4.3-3l30.3-64.9
		C453,183.6,452.3,182.2,450.7,182.2z"/>
	<path class="st0" d="M437.7,146.9c-1.6,0-3.6,1.3-4.3,3l-5.5,11.8c-0.8,1.6-0.1,3,1.6,3H459c1.6,0,3.6-1.3,4.3-3l5.5-11.8
		c0.8-1.6,0.1-2.9-1.6-3H437.7z"/>
	<path class="st0" d="M549.7,182.2h-29.5c-1.6,0-3.6,1.3-4.3,3L502,215.1c-0.7,1.6-3.1,2.1-3.1,0.6l0.7-31.7c0-1.1-0.7-1.8-1.9-1.8
		h-30.5c-1.6,0-3.6,1.3-4.3,3l-30.2,64.9c-0.8,1.6-0.1,3,1.6,3h29.5c1.6,0,3.6-1.3,4.3-3l14-29.9c0.7-1.6,3.1-2.1,3.1-0.6l-0.7,31.7
		c0,1.1,0.7,1.8,1.9,1.8h30.5c1.6,0,3.6-1.3,4.3-3l30.2-64.9C552.1,183.6,551.4,182.2,549.7,182.2z"/>
	<path class="st0" d="M645.8,182.2h-82.6c-1.6,0-3.6,1.3-4.3,3L528.7,250c-0.8,1.6-0.1,3,1.6,3h82.6c1.6,0,3.6-1.3,4.3-3l30.2-64.9
		C648.1,183.6,647.4,182.2,645.8,182.2z M606.5,197l-19.3,41.3c-0.4,0.8-1.3,1.5-2.2,1.5h-14.7c-0.8,0-1.2-0.6-0.8-1.5l19.3-41.3
		c0.4-0.8,1.3-1.5,2.2-1.5h14.7C606.5,195.5,606.9,196.2,606.5,197z"/>
	<path class="st0" d="M719.2,230.9h-29.5c-1.6,0-3.6,1.3-4.3,3l-2.1,4.4c-0.4,0.8-1.3,1.5-2.2,1.5h-14.7c-0.8,0-1.2-0.6-0.8-1.5
		l19.3-41.3c0.4-0.8,1.3-1.5,2.2-1.5h14.7c0.8,0,1.2,0.6,0.8,1.5l-2.1,4.4c-0.8,1.6-0.1,3,1.6,3h29.5c1.6,0,3.6-1.3,4.3-3l7.6-16.2
		c0.8-1.6,0.1-2.9-1.6-2.9h-82.6c-1.6,0-3.6,1.3-4.3,3l-30.2,64.9c-0.8,1.6-0.1,3,1.6,3h82.6c1.6,0,3.6-1.3,4.3-3l7.6-16.2
		C721.5,232.2,720.8,230.9,719.2,230.9z"/>
	<path class="st0" d="M837.9,182.2h-82.6c-1.6,0-3.6,1.3-4.3,3L720.8,250c-0.8,1.6-0.1,3,1.6,3H805c1.6,0,3.6-1.3,4.3-3l30.2-64.9
		C840.3,183.6,839.6,182.2,837.9,182.2z M798.6,197l-19.3,41.3c-0.4,0.8-1.3,1.5-2.2,1.5h-14.7c-0.8,0-1.2-0.6-0.8-1.5L781,197
		c0.4-0.8,1.3-1.5,2.2-1.5h14.7C798.7,195.5,799,196.2,798.6,197z"/>
</g>
</svg>
